<svg width="342" height="342" xmlns="http://www.w3.org/2000/svg" xml:space="preserve" enable-background="new 0 0 1600 889" version="1.1">

 <g>
  <title>Layer 1</title>
  <g id="svg_124">
   <path id="svg_5" d="m169.94498,10.00449c8.45215,1.02265 16.44788,1.95838 24.41699,3.0831c33.23108,4.69007 65.13733,13.21313 93.00556,32.97277c12.10126,8.58025 23.25561,18.56575 28.14142,32.84168c3.33105,9.73298 4.73535,20.41365 5.25897,30.75876c1.07086,21.15421 -0.42847,42.26909 -5.53314,62.92293c-1.00183,4.05345 -3.42878,7.90604 -5.8111,11.438c-6.67804,9.90039 -7.83118,20.0952 -3.32129,31.22536c2.73737,6.75551 4.83392,13.78671 6.92694,20.78127c1.24677,4.16674 0.20062,7.61512 -2.67382,11.42532c-6.16016,8.16548 -11.56666,16.94255 -16.76673,25.77249c-2.91534,4.95038 -6.98694,6.17999 -12.10705,6.04865c-15.4773,-0.39701 -30.95514,-0.77265 -46.43293,-1.15006c-1.1474,-0.02798 -2.29608,-0.00369 -4.16095,-0.00369c-2.51416,11.90256 -5.27398,23.69565 -7.41778,35.5997c-1.2666,7.03284 -4.70136,11.36896 -11.61035,13.32708c-15.2287,4.31598 -30.79065,5.29566 -46.47724,4.84916c-21.09631,-0.60044 -41.55591,-4.64606 -61.43725,-11.767c-4.25663,-1.5246 -5.65921,-3.83063 -5.5976,-8.47888c0.14548,-10.9715 -0.29871,-21.96741 -0.94784,-32.92719c-0.45438,-7.67181 -0.95533,-8.42935 -8.29694,-9.01507c-14.75195,-1.17691 -29.5502,-1.86728 -44.34253,-2.37342c-3.42163,-0.11706 -4.66061,-1.25567 -6.11005,-4.20569c-4.36972,-8.89363 -8.99362,-17.70338 -14.17742,-26.14094c-3.19828,-5.20575 -4.94382,-10.03186 -2.21799,-15.84482c1.19717,-2.55301 1.84723,-5.39433 3.24594,-7.8158c7.93664,-13.74021 7.79535,-28.15242 2.45682,-42.36279c-6.1073,-16.25685 -6.92682,-32.72127 -4.58533,-49.59149c5.55444,-40.01961 24.19077,-72.19973 58.16837,-94.57085c16.02532,-10.55119 34.47473,-14.46914 53.64022,-16.44963c11.58698,-0.34895 22.94117,-0.34895 34.7641,-0.34895m-110.54745,39.98459c0,0 -0.02854,-0.07205 -0.52481,0.10819c-0.1587,0.29943 -0.31742,0.59885 -0.89878,1.18126c-0.17062,0.28876 -0.34124,0.57753 -1.02237,1.11342c-0.25934,0.49106 -0.5187,0.98211 -0.68048,1.50252c0,0 -0.0188,-0.10017 -0.50946,0.11394c-0.15118,0.31605 -0.30234,0.63211 -0.37497,0.96839c0,0 -0.02841,-0.07594 -0.51455,0.11942c-0.15052,0.30564 -0.301,0.61129 -0.4585,0.90842c0,0 0.00958,0.00524 -0.52692,0.29499c-0.2886,0.53217 -0.57721,1.06434 -1.20132,1.82171c-0.17487,0.21341 -0.28726,0.45578 -0.91693,1.01142c-0.52228,0.92801 -1.04453,1.85601 -1.9722,3.01026c-0.24014,0.22235 -0.36902,0.49692 -0.90085,1.14115c-0.24707,0.54402 -0.49414,1.08805 -1.11969,1.87183c-0.20004,0.23354 -0.32336,0.50229 -0.91311,1.07959c-0.21796,0.55605 -0.43592,1.1121 -0.55884,1.68537c0,0 -0.02002,-0.09448 -0.49274,0.13244c-0.125,0.31867 -0.25003,0.63735 -0.40079,0.95226c0,0 0.01422,0.02231 -0.53952,0.36709c-0.87085,1.50587 -1.74167,3.01175 -2.51083,4.63279c0,0 -0.07065,-0.1364 -0.62888,0.24257c-1.10727,2.25015 -2.21457,4.50031 -3.31738,6.75638c0,0 -0.00601,-0.00341 -0.54776,0.36648c-0.254,0.8228 -0.508,1.6456 -0.60464,2.64086c0,0 -0.12027,-0.20011 -0.59678,0.16424c-0.16146,0.57284 -0.32293,1.14567 -0.37436,1.77597c0,0 -0.05615,-0.11071 -0.59246,0.32677c-0.49008,1.52749 -0.98014,3.05498 -1.47452,4.65955c0,0 0.03879,-0.06635 -0.46414,0.43592c-0.53079,1.84039 -1.06156,3.68076 -1.4939,5.58261c0,0 -0.03525,-0.11057 -0.5419,0.42371c-1.69309,7.60721 -4.20575,15.14256 -4.88065,22.83905c-0.9342,10.65368 -0.48568,21.42861 -0.67346,32.71206c0.10489,0.35733 0.20978,0.71466 0.26496,1.80896c0.61209,1.79972 1.22418,3.59945 1.89312,5.27984c0,0 -0.10257,0.08336 -0.04821,0.86025c1.29217,3.89747 2.58435,7.79496 3.73202,11.90809c0,0 0.13779,0.22002 0.15399,1.07199c2.51129,10.70212 3.89658,21.40775 -0.07119,32.32303c0,0 0.08004,0.2457 -0.36698,0.64905c-0.0769,0.38737 -0.15381,0.77473 -0.59369,1.66586c-0.27878,0.76213 -0.55755,1.52426 -1.30148,2.70183c-0.13409,0.59734 -0.26819,1.19467 -0.60251,2.02945c0,0 -0.0199,0.30997 -0.58417,0.78709c-1.41501,3.54471 -3.45559,6.9903 -4.03808,10.6669c-0.43116,2.72117 1.03524,5.74296 1.79016,9.02372c0,0 0.29281,0.29417 0.3569,0.73428c0.13895,0.286 0.36218,0.46938 0.65973,0.56244c0,0 0.01211,-0.009 0.11026,0.50906c0.26941,0.20855 0.53879,0.41707 0.83673,0.54398c0,0 -0.08523,0.01457 0.06073,0.56973c0.28812,0.24204 0.57623,0.48407 1.09259,1.34703c3.83698,7.34032 7.98664,14.54074 11.36237,22.08739c1.41943,3.17319 2.94583,3.94191 6.19418,4.09781c14.76974,0.70892 29.54474,1.5209 44.27136,2.82214c7.0286,0.62104 8.37375,2.26145 8.90207,9.41587c0.82019,11.10626 1.66568,22.259 1.45142,33.37179c-0.09888,5.12927 1.60153,7.05286 5.95739,8.45944c21.52659,6.95121 43.51859,11.46973 66.17563,10.46945c12.37757,-0.54638 24.69348,-2.88586 36.98743,-4.74554c5.28192,-0.79901 8.3075,-4.33447 9.39642,-9.69464c2.31507,-11.39539 5.0232,-22.71359 7.17798,-34.13742c0.82935,-4.39652 2.85535,-5.42224 7.05402,-5.25427c15.63013,0.6253 31.2746,0.89468 46.91406,1.28308c3.99927,0.09933 7.19788,-0.66931 9.54633,-4.74689c4.87011,-8.45599 9.90613,-16.90686 15.82409,-24.63203c3.10858,-4.05805 4.39502,-7.52405 2.75794,-12.17112c-0.65998,-1.87355 -1.35144,-3.73602 -1.98657,-6.27508c-0.27924,-0.59456 -0.55854,-1.18912 -0.84052,-2.08556c0,0 -0.18475,-0.23877 -0.18823,-0.88676c-0.30249,-0.55005 -0.60498,-1.10012 -0.9234,-2.01796c0,0 -0.17121,-0.32594 -0.12433,-0.93135c-0.27686,-0.5161 -0.55365,-1.0322 -0.93878,-1.43909c0,0 0.14087,-0.06183 0.1383,-0.7309c-0.37268,-0.77545 -0.74536,-1.5509 -1.18292,-2.25576c0,0 0.09399,-0.01873 0.06079,-0.68084c-0.27917,-0.58752 -0.55835,-1.17504 -0.80939,-2.06228c0,0 -0.18042,-0.24101 -0.16992,-0.92151c-0.29132,-0.59682 -0.58264,-1.19362 -0.87298,-2.08115c0,0 -0.18372,-0.22528 -0.17633,-0.90091c-0.25373,-0.60893 -0.50745,-1.21785 -0.6836,-2.10946c0,0 -0.1643,-0.24277 -0.14221,-1.167c-1.10559,-7.75665 0.2926,-15.08375 4.1897,-22.44306c0.20184,-0.52074 0.40375,-1.04148 1.10339,-1.87905c0.23792,-0.52904 0.47583,-1.05809 0.60773,-1.62712c0,0 0.04565,0.10371 0.51843,-0.13367c0.11865,-0.32159 0.2373,-0.64317 0.34784,-0.96635c0,0 0.00409,0.0088 0.49506,-0.30872c0.23864,-0.52456 0.47723,-1.04911 0.61908,-1.59988c0,0 0.03411,0.0943 0.51623,-0.1329c0.1261,-0.31997 0.25214,-0.63993 0.36719,-0.9582c0,0 0.0047,0.0111 0.47455,-0.34129c0.21435,-0.5352 0.42865,-1.07039 0.54742,-1.63753c0,0 0.06769,0.0746 0.57758,-0.26275c0.17181,-0.57317 0.34363,-1.14633 0.42602,-1.73757c0,0 0.06024,0.0685 0.58332,-0.43275c0.1784,-1.19273 0.35681,-2.38547 0.94641,-4.24355c4.6958,-22.99815 5.52404,-46.21566 4.21875,-69.59179c-1.03327,-18.50388 -9.37531,-33.2263 -23.55079,-44.46533c-8.42401,-6.67903 -17.46154,-12.86565 -26.97442,-17.83582c-25.72601,-13.44097 -53.69788,-19.31173 -82.32257,-22.46346c-25.13385,-2.76736 -50.20673,-3.31877 -74.89069,3.33341c-18.36371,4.94891 -34.53107,13.76682 -47.69961,28.57222c-0.18485,0.32183 -0.36969,0.64366 -0.45249,0.98365c0,0 -0.04547,-0.09316 -0.54599,0.10581c-0.16263,0.3114 -0.32522,0.62281 -0.40194,0.95328c0,0 -0.02167,-0.08528 -0.51831,0.10576c-0.16794,0.30527 -0.33588,0.61053 -0.43088,0.942z" fill="#3A3020"/>
   <path id="svg_12" d="m52.34815,58.84845c0.04996,-0.27133 0.16235,-0.5137 0.82083,-0.9302c0.74045,-0.77151 0.99732,-1.33994 1.25421,-1.90837c0,0 -0.00958,-0.00524 0.22287,-0.11639c0.39237,-0.40498 0.55228,-0.69881 0.71219,-0.99263c0,0 0.02841,0.07594 0.2395,-0.03939c0.35892,-0.43261 0.50672,-0.74989 0.65454,-1.06717c0,0 0.0188,0.10017 0.25684,0.00232c0.47635,-0.61583 0.71466,-1.13381 0.95294,-1.65179c0.17063,-0.28877 0.34125,-0.57754 0.95359,-1.11738c0.61224,-0.53752 0.78277,-0.82398 0.95333,-1.11043c0,0.00001 0.02854,0.07206 0.23914,-0.04137c0.37936,-0.41549 0.54812,-0.71755 0.71692,-1.01961c0,0 0.02167,0.08528 0.23813,-0.01552c0.37295,-0.41768 0.52948,-0.73457 0.686,-1.05145c0,0 0.04547,0.09316 0.27545,-0.00835c0.40088,-0.44043 0.57178,-0.77935 0.74268,-1.11826c12.64837,-14.56928 28.81573,-23.38719 47.17944,-28.3361c24.68396,-6.65218 49.75684,-6.10077 74.89069,-3.33341c28.62469,3.15173 56.59656,9.02249 82.32257,22.46346c9.51288,4.97017 18.55041,11.15679 26.97442,17.83582c14.17548,11.23903 22.51752,25.96145 23.55079,44.46533c1.30529,23.37613 0.47705,46.59364 -4.72278,70.14488c-0.65784,1.76594 -0.81165,2.97882 -0.96546,4.19171c0,0 -0.06024,-0.0685 -0.2835,0.10056c-0.38642,0.74798 -0.54956,1.32692 -0.71271,1.90585c0.00006,0.00001 -0.06763,-0.07459 -0.29041,0.08372c-0.41339,0.71608 -0.60394,1.27385 -0.79449,1.83161c0,0 -0.0047,-0.0111 -0.22663,0.11603c-0.35711,0.4375 -0.49224,0.74789 -0.62738,1.05827c0,0 -0.03411,-0.0943 -0.27435,0.03259c-0.45013,0.68143 -0.65997,1.23598 -0.86981,1.79053c0,-0.00002 -0.00409,-0.00882 -0.23004,0.1187c-0.34888,0.44374 -0.4718,0.75998 -0.59473,1.07621c0.00006,0 -0.04559,-0.10371 -0.28882,0.02329c-0.44952,0.69032 -0.65588,1.25365 -0.8623,1.81697c-0.20184,0.52072 -0.40375,1.04146 -1.19214,1.67955c-0.70862,-2.43014 -1.0918,-4.99817 -0.89374,-7.52055c0.32569,-4.14873 1.02796,-8.2679 1.58881,-12.38448c0.01739,0.01506 0.04687,-0.01872 0.4032,-0.15118c0.53894,-2.61713 0.72155,-5.10179 0.95349,-7.5986c0.04925,-0.01218 -0.00391,0.07427 -0.04969,-0.33249c-1.02063,-0.84165 -1.98364,-1.62514 -2.97198,-1.65845c-12.26563,-0.41344 -24.53418,-0.95993 -36.80359,-1.00453c-36.59064,-0.13303 -73.18207,-0.0688 -109.77313,-0.03191c-1.76691,0.00179 -3.53326,0.47765 -5.76184,0.7784c-4.81324,-0.06078 -9.16455,-0.16721 -13.66211,-0.62657c-1.22943,-0.62717 -2.30414,-1.09778 -3.39704,-1.14464c-8.95675,-0.3841 -17.91555,-0.92049 -26.87634,-0.97338c-23.32867,-0.13765 -46.65884,-0.01049 -69.98797,-0.10176c-3.51447,-0.01374 -5.0752,1.44664 -4.54792,4.78073c0.91968,5.81521 2.09552,11.5895 3.1142,17.3897c0.30215,1.72044 0.43756,3.47018 0.64935,5.20651c-0.30297,0.00986 -0.60595,0.0197 -0.90893,0.02956c-1.05857,-2.45851 -2.11716,-4.91703 -3.17572,-7.37552c0,0 -0.13779,-0.22002 0.00787,-0.78139c-1.21356,-4.41545 -2.57278,-8.26953 -3.93204,-12.12361c0,0 0.10257,-0.08336 0.12534,-0.43919c-0.60684,-2.12421 -1.23651,-3.89261 -1.86615,-5.661c-0.10492,-0.35731 -0.20981,-0.71464 -0.22431,-1.84679c-0.18981,-14.59761 0.49647,-28.30471 3.98496,-41.79699c1.13312,-4.38265 1.34964,-9.00232 1.98544,-13.51358c-0.00003,0 0.03522,0.11057 0.32239,-0.07961c0.76132,-2.09169 1.23547,-3.99319 1.70966,-5.8947c0,0 -0.03879,0.06635 0.35211,0.00127c0.8006,-1.7207 1.21026,-3.37633 1.61993,-5.03195c0,0 0.05615,0.11071 0.30292,-0.04969c0.36587,-0.76691 0.48498,-1.37342 0.6041,-1.97992c0,0 0.12027,0.20011 0.36575,-0.01058c0.46399,-1.07383 0.68243,-1.93695 0.90088,-2.80007c0.00003,0.00001 0.00604,0.00342 0.35089,-0.05542c1.40683,-2.39806 2.46878,-4.73729 3.53076,-7.07651c0,0 0.07065,0.1364 0.39612,0.07207c1.13003,-1.68062 1.93457,-3.29693 2.7391,-4.91324c0,0 -0.01422,-0.02231 0.22156,-0.15032c0.36975,-0.43574 0.50372,-0.74346 0.63773,-1.05117c0,0 0.02002,0.09448 0.2633,-0.03336c0.44846,-0.69553 0.65357,-1.26321 0.85871,-1.83088c0.0466,-0.30395 0.16992,-0.5727 0.85611,-1.04272c0.70666,-0.80858 0.92718,-1.38069 1.14773,-1.95279c0.01764,-0.32679 0.14652,-0.60136 0.95908,-0.96295c1.04144,-1.14461 1.51046,-2.14997 1.97949,-3.15533z" fill="#F5BF45"/>
   <path id="svg_13" d="m302.51114,214.99274c0,0.00002 0.18042,0.24103 0.10584,0.74411c0.25598,1.07582 0.58655,1.64858 0.91717,2.22131c0,0 -0.09399,0.01873 -0.096,0.33542c0.39447,1.08052 0.79101,1.84433 1.1875,2.60814c0,0 -0.14087,0.06183 -0.13794,0.31658c0.29828,0.7664 0.59363,1.27807 0.88897,1.78975c0,0 0.17121,0.32594 0.1435,0.84529c0.2998,1.06176 0.62719,1.60418 0.95459,2.1466c0,0 0.18475,0.23877 0.12854,0.73911c0.24749,1.08583 0.55108,1.67131 0.85473,2.25677c0.67713,1.86751 1.36859,3.72998 2.02857,5.60353c1.63708,4.64707 0.35064,8.11307 -2.75794,12.17112c-5.91796,7.72517 -10.95398,16.17604 -15.82409,24.63203c-2.34845,4.07758 -5.54706,4.84622 -9.54633,4.74689c-15.63946,-0.3884 -31.28393,-0.65778 -46.91406,-1.28308c-4.19867,-0.16797 -6.22467,0.85775 -7.05402,5.25427c-2.15478,11.42383 -4.86291,22.74203 -7.17798,34.13742c-1.08892,5.36017 -4.1145,8.89563 -9.39642,9.69464c-12.29395,1.85968 -24.60986,4.19916 -36.98743,4.74554c-22.65704,1.00028 -44.64904,-3.51824 -66.17563,-10.46945c-4.35586,-1.40658 -6.05627,-3.33017 -5.95739,-8.45944c0.21426,-11.11279 -0.63123,-22.26553 -1.45142,-33.37179c-0.52832,-7.15442 -1.87347,-8.79483 -8.90207,-9.41587c-14.72662,-1.30124 -29.50162,-2.11322 -44.27136,-2.82214c-3.24835,-0.1559 -4.77475,-0.92462 -6.19418,-4.09781c-3.37573,-7.54665 -7.52539,-14.74707 -11.53275,-22.68689c-0.46963,-0.83389 -0.76892,-1.06828 -1.06817,-1.30269c0,0 0.08523,-0.01457 0.00824,-0.22488c-0.33729,-0.42412 -0.59757,-0.63793 -0.85789,-0.85173c0,0 -0.01211,0.009 -0.06356,-0.20494c-0.1865,-0.4832 -0.39347,-0.67476 -0.67237,-0.78861c0,0 -0.29281,-0.29417 -0.3233,-0.91507c-1.19858,-4.74911 -0.99316,-8.54086 1.40244,-12.40968c1.19787,-1.93459 1.00439,-4.73071 1.44024,-7.13716c0,0 0.0199,-0.30997 0.3725,-0.62222c0.47342,-0.91906 0.59424,-1.52584 0.71506,-2.13263c0.27878,-0.76214 0.55755,-1.52427 1.24475,-2.73763c0.48303,-0.84013 0.55768,-1.22905 0.63232,-1.61798c-0.00003,0 -0.08007,-0.2457 0.38514,-0.40344c1.58856,-5.34793 2.59652,-10.56745 3.90515,-15.71048c0.39447,-1.55024 1.62417,-2.88794 2.61181,-4.00446c0.1518,0.77893 0.16303,1.23932 -0.05908,1.97333c0.45621,2.75748 1.14572,5.24129 1.99802,8.03668c0.16791,0.77605 0.173,1.24053 -0.05936,2.00803c-0.21664,2.27127 -0.49597,4.29829 -0.12387,6.19771c1.76553,9.012 4.41013,17.91476 5.37494,27.00152c0.82806,7.79874 6.1676,10.83734 12.01745,11.36919c10.53498,0.95782 21.10785,1.76773 31.67887,1.99658c15.28714,0.33101 30.58728,0.14874 45.88006,0.00107c1.53327,-0.0148 3.05432,-1.3008 4.58735,-1.95116c0.00628,0.04567 -0.05744,-0.02103 0.32311,0.01219c4.98468,-0.83386 5.77173,-4.15232 5.63538,-8.04141c0.03894,0.04736 -0.07446,0.00066 0.26941,-0.12625c0.82861,-1.68983 1.31336,-3.25275 1.80969,-4.80446c0.0116,0.0112 -0.02002,0.01387 0.23712,-0.15868c0.40412,-0.7523 0.55109,-1.33207 0.73005,-1.88017c0.03198,0.03168 -0.05555,0.01045 0.12439,-0.03196c0.26544,-0.12903 0.43884,-0.24581 0.42126,-0.29693c-0.0733,-0.2133 -0.2041,-0.40687 -0.32336,-0.88745c0.25085,-0.76429 0.51129,-1.24879 1.03015,-1.91084c0.39862,-0.76643 0.53882,-1.35533 0.70703,-1.90517c0.02808,0.03908 -0.06726,0.02617 0.27185,-0.10835c2.47577,-6.71626 4.61243,-13.29803 6.77832,-19.8508c0.0293,0.02899 -0.05023,0.00723 0.32086,-0.05124c1.48615,-3.1989 3.00012,-6.2608 3.63666,-9.49539c1.52307,-7.73878 4.7323,-11.27452 11.08508,-11.40884c-0.0133,0.00877 -0.00519,-0.02198 0.10669,0.21704c0.41785,0.39332 0.72376,0.54762 0.98194,0.7205c-0.04773,0.01859 -0.00135,-0.07274 0.00036,0.32179c0.64313,3.23003 1.11096,6.11866 1.95947,8.89078c2.24018,7.31859 4.64539,14.58666 7.08655,21.9491c0.10156,0.07428 0.05036,0.32069 -0.00928,0.76144c-1.30346,2.64011 3.14209,5.98244 -1.45861,7.49408c0.01977,-0.00934 0.01257,-0.05256 0.01648,-0.32417c-0.24677,-0.51633 -0.49756,-0.76105 -0.72034,-1.00923c0.02807,-0.00348 -0.01093,0.0374 -0.01196,-0.27664c-0.36908,-0.77285 -0.73707,-1.23165 -1.31055,-1.79555c-0.45123,-0.3123 -0.60462,-0.57369 -0.76569,-1.13036c-0.39001,-0.41911 -0.68005,-0.59712 -0.93487,-0.78921c0.03521,-0.0141 0.00207,0.05405 -0.04846,-0.30988c-1.55951,-0.31895 -3.06861,-0.274 -4.62452,-0.31451c-0.04693,-0.08544 0.11109,0.02875 -0.18103,0.01407c-0.41967,0.31781 -0.54736,0.6503 -0.70483,0.99852c-0.02973,0.01573 -0.00598,0.07872 -0.45477,-0.06835c-1.69172,-0.13658 -2.93457,-0.12608 -4.13117,-0.15361c0.04627,-0.03801 0.03241,0.08101 -0.06823,-0.28296c-2.19147,-2.14848 -4.23871,-3.56614 -5.77729,0.49602c-0.35235,0.41991 -0.62744,0.5526 -1.3172,0.59793c-1.43054,1.70812 -2.48913,3.41477 -3.57544,5.08331c-0.02777,-0.03808 0.06562,-0.02494 -0.20831,0.14092c-0.39142,0.56532 -0.50891,0.9648 -0.59656,1.48228c0.02991,0.11803 -0.15253,0.27927 -0.42413,0.44437c-0.43945,0.75481 -0.6073,1.34451 -0.80017,1.90198c-0.02509,-0.03224 0.05584,-0.02112 -0.21289,0.13522c-0.43872,0.73145 -0.60864,1.30654 -0.80408,1.85343c-0.02545,-0.02823 0.04663,-0.00397 -0.30945,0.0417c-2.09381,5.05014 -3.83142,10.05461 -5.60095,15.00807c-0.03192,-0.05098 0.07752,-0.00092 -0.21521,0.14844c-0.37463,0.76127 -0.45642,1.37321 -0.57886,1.84805c-0.04071,-0.13711 0.06922,0.12769 -0.30114,0.28319c-0.48578,1.18983 -0.6012,2.22418 -0.64917,3.34524c0.06756,0.08672 -0.02063,0.28804 -0.40296,0.43676c-2.43353,3.94067 -3.17511,7.81527 -1.01977,12.03784c0.10199,0.17158 0.15545,0.56717 0.23108,0.84048c0.38714,0.46663 0.69872,0.65996 0.96252,0.85773c-0.04767,0.00445 -0.00653,-0.08211 0.00293,0.10306c0.28747,0.19886 0.56555,0.21257 1.18994,0.24423c0.80627,0.06563 1.26618,0.1133 1.92401,0.31892c0.6745,-0.14978 1.15106,-0.45753 1.63935,-0.7169c0.01165,0.04839 -0.08661,0.03264 0.17541,-0.02153c0.47729,-0.3264 0.69244,-0.59863 0.91504,-0.84316c0.00745,0.02774 -0.03845,-0.00685 0.28369,-0.01998c0.6499,-0.47181 0.97772,-0.93045 1.49292,-1.16324c0.05939,0.07728 -0.06866,-0.07131 0.12317,-0.20911c0.58093,-0.5269 0.84204,-1.06459 1.10913,-1.59224c0.00598,0.01006 -0.01648,0.00514 0.21612,-0.10231c0.40455,-0.3945 0.57642,-0.68155 0.76166,-0.93391c0.01331,0.03466 -0.05651,0.00923 0.19056,-0.09441c0.40612,-0.41269 0.56518,-0.72176 0.734,-0.98709c0.00989,0.04375 -0.07843,0.02806 0.18299,-0.06984c0.39837,-0.42801 0.53534,-0.7581 0.65918,-0.99158c-0.01313,0.09664 -0.03968,-0.0966 0.32873,-0.05598c0.88416,-0.91509 1.39978,-1.87079 2.00867,-3.03992c0.28003,-0.48031 0.53162,-0.65304 1.2251,-0.7306c1.02533,-0.78113 1.67334,-1.56325 2.34906,-2.32715c0.02771,0.01823 0.06415,-0.0371 0.51422,0.07704c2.57031,0.17158 4.69061,0.22905 6.82208,0.27597c0.01117,-0.01054 -0.00525,0.01512 0.09869,0.24234c0.31238,0.50906 0.58844,0.68469 1.15613,0.86331c0.49341,0.33093 0.65637,0.61398 0.74707,1.26459c0.4643,0.67482 0.89429,1.04333 1.27283,1.43541c-0.05145,0.02354 -0.02881,-0.08739 -0.00232,0.18889c0.30945,0.49418 0.59235,0.71212 0.82764,0.94229c-0.04767,0.0122 0.00824,-0.06879 0.00415,0.25879c0.43091,0.71539 0.86596,1.10318 1.22491,1.61569c-0.07611,0.12471 0.02887,-0.148 0.02283,0.13329c0.27588,0.50326 0.55774,0.72526 0.79382,0.95954c-0.04583,0.01229 -0.01648,-0.078 0.0271,0.1774c0.29559,0.47951 0.54761,0.70361 0.82099,0.92063c0.02136,-0.00708 -0.00922,0.02647 0.02551,0.34321c0.4704,0.71932 0.906,1.12189 1.56848,1.66927c0.63916,0.71995 1.05164,1.29509 1.56201,2.11789c0.39514,0.42656 0.69238,0.60545 0.94208,0.79864c-0.04749,0.0143 0.00806,-0.06788 0.05658,0.32227c2.8443,2.33651 5.53558,3.25692 7.78717,-0.34227c0.02557,0.0525 -0.06982,-0.01496 0.33343,-0.06838c0.8432,-1.19 1.74347,-2.36988 1.6413,-3.45543c-0.38464,-4.08715 -1.41797,-8.1318 -1.56744,-12.21583c-0.09442,-2.57965 -2.70728,-6.66895 2.74896,-7.25021c-0.05591,0.02183 0.02502,-0.06681 0.00775,0.24761c0.52942,0.83942 1.07617,1.36444 2.06091,1.9347c1.89801,0.09881 3.3581,0.15239 4.95301,0.57011c1.35907,0.67294 2.58001,1.23503 3.80774,1.25011c9.03747,0.11097 18.07794,0.01698 27.11425,0.17192c12.56177,0.21536 25.12018,0.62622 37.68177,0.8589c1.75329,0.03249 3.51654,-0.47258 5.7091,-0.79239c2.47101,0.01265 4.50812,0.08892 6.60077,0.42946c0.7254,0.05594 1.39514,-0.15243 2.10193,-0.46167c0.03699,-0.10087 0.23682,-0.02184 0.57929,-0.05637c0.97711,-1.05484 1.61169,-2.07516 2.42553,-3.42239c0.6947,-1.16597 1.45709,-1.9426 1.6875,-2.85373c2.45581,-9.71348 4.81,-19.45259 7.2367,-29.17351c0.48071,-1.92572 1.15088,-3.80417 2.06201,-6.7751c1.51794,2.50296 2.30987,3.80875 3.10181,5.11452c0,0 0.1643,0.24277 0.0531,0.7374c0.18829,1.09323 0.48785,1.69183 0.78747,2.29046c-0.00006,0 0.18366,0.22528 0.1283,0.72823c0.2691,1.08819 0.5935,1.67345 0.91784,2.25868z" fill="#F4BF45"/>
   <path id="svg_14" d="m38.93534,185.99265c-0.84708,1.43506 -2.07678,2.77276 -2.47125,4.323c-1.30863,5.14303 -2.31659,10.36255 -3.81952,15.61371c3.41693,-10.66077 2.03164,-21.3664 -0.48774,-32.49451c1.05045,2.03251 2.10904,4.49103 3.16761,6.94954c0.30298,-0.00986 0.60596,-0.0197 0.90893,-0.02956c-0.21179,-1.73633 -0.3472,-3.48607 -0.64935,-5.20651c-1.01868,-5.8002 -2.19452,-11.57449 -3.1142,-17.3897c-0.52728,-3.33409 1.03345,-4.79447 4.54792,-4.78073c23.32913,0.09127 46.6593,-0.03589 69.98797,0.10176c8.96079,0.05289 17.91959,0.58928 26.87634,0.97338c1.0929,0.04686 2.16761,0.51747 2.93256,1.21063c-34.52948,0.41895 -68.74072,0.41895 -103.10382,0.41895c1.68329,9.76547 3.45392,20.03775 5.22455,30.31004z" fill="#D9B154"/>
   <path id="svg_15" d="m300.63547,208.51586c-0.80298,-0.84366 -1.59491,-2.14945 -3.11285,-4.65241c-0.91113,2.97093 -1.5813,4.84938 -2.06201,6.7751c-2.4267,9.72092 -4.78089,19.46003 -7.2367,29.17351c-0.23041,0.91113 -0.9928,1.68776 -1.90893,2.85915c-0.40064,0.33233 -0.84479,0.34182 -0.82471,-0.04444c2.66583,-9.95039 5.50024,-19.46717 7.91492,-29.08931c3.9834,-15.87402 7.69561,-31.81611 11.52215,-47.72952c-0.54345,4.13164 -1.24572,8.25081 -1.57141,12.39954c-0.19806,2.52238 0.18512,5.09041 0.69049,7.71617c-3.1073,7.04634 -4.50549,14.37344 -3.41095,22.59221z" fill="#D2AD54"/>
   <path id="svg_16" d="m31.97648,97.11345c-0.38245,4.24413 -0.59897,8.8638 -1.73209,13.24645c-3.48849,13.49228 -4.17477,27.19938 -3.96286,41.51677c0.07529,-10.22841 -0.37323,-21.00334 0.56097,-31.65702c0.6749,-7.69649 3.18756,-15.23184 5.13398,-23.1062z" fill="#D9B154"/>
   <path id="svg_17" d="m28.92704,213.7786c-0.15372,2.16788 0.03976,4.964 -1.15811,6.89859c-2.3956,3.86882 -2.60102,7.66057 -1.46936,12.21322c-0.65751,-2.4634 -2.12391,-5.48519 -1.69275,-8.20636c0.58249,-3.6766 2.62307,-7.12219 4.32022,-10.90545z" fill="#D9B154"/>
   <path id="svg_18" d="m28.25175,160.49231c1.33206,3.46564 2.69128,7.31972 3.97711,11.62735c-1.3656,-3.44394 -2.65778,-7.34143 -3.97711,-11.62735z" fill="#D9B154"/>
   <path id="svg_19" d="m42.01011,74.05863c-0.78287,2.14973 -1.84482,4.48896 -3.25388,6.88408c0.76019,-2.19429 1.86749,-4.44445 3.25388,-6.88408z" fill="#D9B154"/>
   <path id="svg_20" d="m26.45887,154.37217c0.65451,1.3999 1.28418,3.1683 1.86264,5.35218c-0.66333,-1.38423 -1.27542,-3.18396 -1.86264,-5.35218z" fill="#D9B154"/>
   <path id="svg_21" d="m45.14756,69.20037c-0.52765,1.44391 -1.33219,3.06022 -2.51306,4.68326c0.49453,-1.49913 1.36535,-3.00501 2.51306,-4.68326z" fill="#D9B154"/>
   <path id="svg_22" d="m34.01041,91.12314c-0.22272,1.65038 -0.69687,3.55188 -1.50744,5.61284c0.19442,-1.68094 0.72519,-3.52131 1.50744,-5.61284z" fill="#D9B154"/>
   <path id="svg_23" d="m35.96577,86.06007c-0.14152,1.43688 -0.55118,3.09251 -1.34964,4.77467c0.10134,-1.50095 0.5914,-3.02844 1.34964,-4.77467z" fill="#D9B154"/>
   <path id="svg_24" d="m52.05829,58.9906c-0.17917,0.86321 -0.64819,1.86857 -1.48694,2.90006c0.15256,-0.90189 0.67481,-1.82989 1.48694,-2.90006z" fill="#D9B154"/>
   <path id="svg_25" d="m311.75852,173.84352c-0.10773,-0.96226 0.04608,-2.17514 0.49829,-3.60841c0.12006,0.97232 -0.05835,2.16506 -0.49829,3.60841z" fill="#D2AD54"/>
   <path id="svg_26" d="m38.13669,81.18602c0.05243,0.67817 -0.16601,1.54129 -0.70868,2.52889c-0.07016,-0.69834 0.18384,-1.52114 0.70868,-2.52889z" fill="#D9B154"/>
   <path id="svg_27" d="m304.62436,220.56719c-0.3952,-0.42928 -0.79174,-1.19309 -1.1538,-2.3089c0.40716,0.42346 0.77984,1.19891 1.1538,2.3089z" fill="#D2AD54"/>
   <path id="svg_28" d="m57.20682,52.26839c0.01697,0.39442 -0.22134,0.9124 -0.74649,1.51356c-0.02746,-0.40789 0.2319,-0.89894 0.74649,-1.51356z" fill="#D9B154"/>
   <path id="svg_29" d="m54.15494,56.15475c0.01136,0.42356 -0.24551,0.99199 -0.81823,1.65091c-0.02723,-0.44169 0.26138,-0.97386 0.81823,-1.65091z" fill="#D9B154"/>
   <path id="svg_30" d="m303.51755,217.62711c-0.31402,-0.24168 -0.64459,-0.81444 -0.91461,-1.7404c0.33966,0.2343 0.61884,0.82182 0.91461,1.7404z" fill="#D2AD54"/>
   <path id="svg_31" d="m49.15247,63.12545c0.03656,0.41338 -0.18396,0.98549 -0.70138,1.67419c-0.04984,-0.42742 0.19723,-0.97145 0.70138,-1.67419z" fill="#D9B154"/>
   <path id="svg_32" d="m47.13416,66.09891c0.06644,0.431 -0.13867,0.99868 -0.63461,1.68559c-0.07288,-0.43681 0.14508,-0.99286 0.63461,-1.68559z" fill="#D9B154"/>
   <path id="svg_33" d="m305.69071,183.89005c-0.04248,-0.40489 0.16388,-0.96822 0.66644,-1.63855c0.05829,0.42204 -0.17962,0.95109 -0.66644,1.63855z" fill="#D2AD54"/>
   <path id="svg_34" d="m301.46866,211.668c-0.30328,-0.2608 -0.60284,-0.8594 -0.82995,-1.81129c0.32617,0.25564 0.57989,0.86456 0.82995,1.81129z" fill="#D2AD54"/>
   <path id="svg_35" d="m30.06415,210.99289c0.11176,0.39908 -0.00906,1.00586 -0.38235,1.80619c-0.11841,-0.4038 0.01569,-1.00113 0.38235,-1.80619z" fill="#D9B154"/>
   <path id="svg_36" d="m307.66318,180.85454c-0.03564,-0.39578 0.1742,-0.95033 0.67267,-1.61867c0.05005,0.41079 -0.18854,0.93534 -0.67267,1.61867z" fill="#D2AD54"/>
   <path id="svg_37" d="m302.51639,214.6525c-0.32959,-0.24499 -0.65399,-0.83025 -0.92352,-1.77307c0.34613,0.23921 0.63745,0.83601 0.92352,1.77307z" fill="#D2AD54"/>
   <path id="svg_38" d="m309.65079,177.8397c-0.04437,-0.38157 0.14618,-0.93934 0.6073,-1.63944c0.05628,0.39285 -0.15802,0.92804 -0.6073,1.63944z" fill="#D2AD54"/>
   <path id="svg_39" d="m310.75577,175.93189c-0.09185,-0.41026 0.07129,-0.9892 0.50244,-1.72815c0.09614,0.41315 -0.07568,0.98631 -0.50244,1.72815z" fill="#D2AD54"/>
   <path id="svg_40" d="m305.40012,222.70534c-0.31878,-0.20897 -0.61413,-0.72064 -0.85821,-1.54165c0.328,0.20675 0.60479,0.72285 0.85821,1.54165z" fill="#D2AD54"/>
   <path id="svg_41" d="m306.47306,225.67594c-0.32569,-0.21842 -0.65308,-0.76084 -0.94489,-1.6387c0.33814,0.21459 0.64063,0.76466 0.94489,1.6387z" fill="#D2AD54"/>
   <path id="svg_42" d="m307.47904,228.66004c-0.32465,-0.24968 -0.62824,-0.83516 -0.87433,-1.77005c0.33679,0.24516 0.61609,0.83972 0.87433,1.77005z" fill="#D2AD54"/>
   <path id="svg_43" d="m36.90269,83.99389c0.11913,0.42433 0.00002,1.03084 -0.42084,1.76902c-0.14035,-0.44117 0.02112,-1.014 0.42084,-1.76902z" fill="#D9B154"/>
   <path id="svg_44" d="m27.4748,235.25452c0.21124,-0.04523 0.47152,0.16858 0.79455,0.63351c-0.20669,0.04259 -0.47607,-0.16593 -0.79455,-0.63351z" fill="#D9B154"/>
   <path id="svg_45" d="m60.99894,47.88855c0.09372,0.2174 -0.06281,0.53429 -0.4787,0.94244c-0.0968,-0.22014 0.06579,-0.53155 0.4787,-0.94244z" fill="#D9B154"/>
   <path id="svg_46" d="m55.11518,54.99854c0.08316,0.19614 -0.07675,0.48997 -0.46561,0.89921c-0.07846,-0.19024 0.07202,-0.49589 0.46561,-0.89921z" fill="#D9B154"/>
   <path id="svg_47" d="m306.82938,182.08953c-0.11352,-0.19754 0.0094,-0.51378 0.36231,-0.95673c0.11138,0.19487 -0.00727,0.51645 -0.36231,0.95673z" fill="#D2AD54"/>
   <path id="svg_48" d="m56.00696,53.90136c0.09751,0.21022 -0.05029,0.5275 -0.44845,0.95c-0.09922,-0.21084 0.05194,-0.5269 0.44845,-0.95z" fill="#D9B154"/>
   <path id="svg_49" d="m308.80289,179.0766c-0.10589,-0.19679 0.02924,-0.50718 0.39185,-0.94552c0.10138,0.19198 -0.02466,0.51194 -0.39185,0.94552z" fill="#D2AD54"/>
   <path id="svg_50" d="m46.04737,67.93994c0.10235,0.19425 -0.03162,0.50197 -0.38849,0.93958c-0.0979,-0.18877 0.02713,-0.50745 0.38849,-0.93958z" fill="#D9B154"/>
   <path id="svg_51" d="m62.00724,46.78052c0.08917,0.22085 -0.08173,0.55977 -0.53363,0.99112c-0.09616,-0.2294 0.08868,-0.55123 0.53363,-0.99112z" fill="#D9B154"/>
   <path id="svg_52" d="m59.12086,50.00714c0.07757,0.19633 -0.09296,0.48279 -0.49387,0.87882c-0.07169,-0.18984 0.08703,-0.48926 0.49387,-0.87882z" fill="#D9B154"/>
   <path id="svg_53" d="m60.07673,48.95156c0.07952,0.20654 -0.08924,0.5086 -0.50507,0.91099c-0.07913,-0.20494 0.08881,-0.5102 0.50507,-0.91099z" fill="#D9B154"/>
   <path id="svg_54" d="m26.72184,234.22199c0.24685,-0.1062 0.45382,0.08536 0.64532,0.56242c-0.2511,0.12702 -0.47433,-0.05636 -0.64532,-0.56242z" fill="#D9B154"/>
   <path id="svg_55" d="m28.34836,236.34967c0.22626,-0.04316 0.52555,0.19123 0.88105,0.71466c-0.23185,0.047 -0.51996,-0.19503 -0.88105,-0.71466z" fill="#D9B154"/>
   <path id="svg_56" d="m31.95029,206.63125c0.14887,0.18725 0.07422,0.57617 -0.22729,1.16444c-0.15006,-0.18804 -0.07315,-0.5754 0.22729,-1.16444z" fill="#D9B154"/>
   <path id="svg_62" d="m304.94474,165.823c-3.84394,15.89835 -7.55615,31.84044 -11.53955,47.71446c-2.41468,9.62214 -5.24909,19.13892 -8.10376,29.31952c-0.65027,1.49956 -1.09162,2.38266 -1.53302,3.26573c0,0 -0.19983,-0.07903 -0.59259,-0.01596c-0.86237,0.12047 -1.33209,0.17783 -1.80176,0.23517c-2.03705,-0.07624 -4.07416,-0.15251 -6.99707,-0.28006c-7.68457,-0.23962 -14.48267,-0.45868 -21.28217,-0.61027c-17.57092,-0.39176 -35.14239,-0.75368 -52.71368,-1.12751c-1.46002,-0.05358 -2.92011,-0.10716 -4.93677,-0.45838c-1.01275,-0.86402 -1.46887,-1.43038 -1.92499,-1.99671c0,0 -0.08093,0.08864 -0.06781,-0.30203c-3.27087,-9.31001 -6.55493,-18.22934 -9.83892,-27.14867c0,0 0.0512,-0.24641 -0.05695,-0.72477c-2.12232,-8.96941 -4.04578,-17.48388 -6.22479,-25.93239c-0.45337,-1.75786 -1.85291,-3.27166 -2.81635,-4.89794c0,0 -0.04638,0.09133 -0.09021,-0.18249c-0.36334,-0.41731 -0.6828,-0.56079 -1.00226,-0.70429c0,0 -0.00811,0.03075 -0.16339,-0.27963c-4.56158,-2.56197 -7.88476,-0.80681 -9.43194,3.2376c-2.23902,5.85273 -3.69965,12.00323 -5.49231,18.02671c0,0 0.07953,0.02176 -0.22431,0.22208c-2.48358,6.71887 -4.66327,13.23744 -6.84289,19.75601c0,0 0.09534,0.01291 -0.19415,0.14557c-0.42768,0.72542 -0.56586,1.31821 -0.70405,1.91098c-0.26043,0.4845 -0.52087,0.969 -0.91271,1.9491c-0.13324,0.6674 -0.13508,0.8392 -0.13685,1.01098c0,0 0.08753,0.02123 -0.19439,0.16626c-0.43372,0.72204 -0.58551,1.29902 -0.73725,1.87601c0,0 0.03162,-0.00267 -0.21948,0.22687c-0.80536,1.71658 -1.35968,3.20361 -1.91406,4.69064c0,-0.00001 0.1134,0.04669 -0.21314,0.17874c-2.12713,2.69764 -3.92773,5.26322 -5.72833,7.82878c0,0 0.06372,0.0667 -0.40936,0.03765c-14.27695,0.01128 -28.08408,0.25705 -41.88355,0.03197c-12.80786,-0.20896 -25.62246,-0.68548 -38.40548,-1.49567c-8.16153,-0.51726 -10.387,-2.8526 -11.9711,-10.71492c-2.19797,-10.90901 -4.30463,-21.83641 -6.45038,-32.75595c-0.00513,-0.46446 -0.01022,-0.92894 -0.13629,-2.0712c-0.68283,-3.09988 -1.24469,-5.522 -1.80655,-7.94411c-0.0112,-0.46037 -0.02243,-0.92076 -0.17423,-1.69969c-1.91119,-10.59083 -3.68182,-20.86311 -5.36511,-30.62858c34.3631,0 68.57434,0 103.25006,-0.066c4.8158,0.04042 9.16711,0.14685 14.43909,0.32039c32.15259,0.42102 63.38507,0.72728 94.61609,1.14597c20.09497,0.26938 40.18774,0.70397 60.28149,1.06452c0,0 0.05316,-0.08645 -0.03088,0.2913c-0.32562,1.82132 -0.5672,3.26489 -0.92395,4.81504c-0.24958,0.43041 -0.22058,0.73049 -0.17145,1.24086c-0.15533,0.59256 -0.16748,0.95107 -0.17963,1.30959c0,0 -0.02948,0.03378 -0.04687,0.01872z" fill="#020100"/>
   <path id="svg_63" d="m306.25174,157.74073c-20.04797,0.04621 -40.14074,-0.38838 -60.23571,-0.65776c-31.23102,-0.41869 -62.4635,-0.72495 -94.15412,-1.19162c1.30787,-0.36786 3.07422,-0.84372 4.84113,-0.84551c36.59106,-0.03689 73.18249,-0.10112 109.77313,0.03191c12.26941,0.0446 24.53796,0.59109 36.80359,1.00453c0.98834,0.03331 1.95135,0.8168 2.97198,1.65845z" fill="#D9B154"/>
   <path id="svg_64" d="m305.34794,165.67182c-0.34418,-0.22606 -0.33203,-0.58457 -0.12885,-1.45462c0.20691,-0.69768 0.2229,-0.88381 0.23883,-1.06995c0.24152,-1.44357 0.4831,-2.88714 0.75946,-4.69629c-0.14789,2.11907 -0.3305,4.60373 -0.86944,7.22086z" fill="#D9B154"/>
   <path id="svg_65" d="m181.45438,263.89936c-0.41247,-0.57515 -0.82495,-1.15029 -1.54571,-2.15787c-0.71277,-0.85442 -1.11719,-1.2764 -1.52161,-1.69838c0,0 0.03058,-0.03355 -0.03394,-0.28426c-0.31683,-0.47323 -0.56909,-0.69574 -0.82141,-0.91824c0,0 -0.02935,0.09029 -0.01837,-0.18767c-0.24365,-0.51036 -0.49829,-0.74276 -0.75293,-0.97516c0,0 -0.10498,0.27271 -0.10595,-0.13377c-0.3819,-0.8248 -0.76282,-1.24315 -1.14374,-1.6615c0,0 -0.05591,0.08099 -0.06342,-0.1954c-0.2713,-0.5024 -0.53509,-0.7284 -0.79895,-0.95438c0,0 -0.02264,0.11093 -0.03656,-0.1929c-0.42316,-0.6897 -0.83246,-1.07556 -1.2417,-1.46141c-0.05646,-0.34432 -0.21942,-0.62737 -0.79333,-1.20447c-0.59625,-0.51834 -0.88788,-0.68135 -1.17957,-0.84434c0,-0.00002 0.01642,-0.02568 -0.16125,-0.33338c-2.55878,-2.33682 -4.87799,-2.54947 -7.10565,-0.07187c0,0 -0.03644,0.05533 -0.35694,0.12705c-1.02478,0.79321 -1.72919,1.51471 -2.43353,2.2362c-0.31622,0.07856 -0.56781,0.25129 -1.13581,0.85279c-0.95043,1.18243 -1.51977,2.03027 -2.08911,2.87811c0,0 0.02655,0.19324 -0.21185,0.20204c-0.38196,0.33388 -0.52551,0.65895 -0.66907,0.98404c0,0 0.08832,0.01569 -0.1651,0.07848c-0.41479,0.36992 -0.57617,0.67704 -0.73754,0.98419c0,0 0.06982,0.02543 -0.19514,0.07562c-0.42419,0.35228 -0.58337,0.6544 -0.74261,0.95651c0,0 0.02246,0.00492 -0.23675,0.11307c-0.56476,0.55985 -0.87024,1.01155 -1.17579,1.46324c0.12806,0.14859 0.25611,0.29718 -0.06427,0.31423c-0.81695,0.27296 -1.18548,0.6775 -1.55407,1.08204c0,0 0.0459,0.03459 -0.22681,0.05599c-0.48578,0.297 -0.69879,0.5726 -0.9118,0.84819c0,0 0.09826,0.01575 -0.23334,0.01773c-0.72687,0.17085 -1.12207,0.33972 -1.51727,0.50859c-0.45996,-0.04768 -0.91987,-0.09535 -1.91456,-0.31543c-0.53472,-0.17239 -1.01098,-0.27495 -1.01098,-0.27495c0,0 -0.04114,0.08656 -0.09247,-0.1746c-0.34723,-0.46558 -0.64319,-0.66996 -0.93915,-0.87433c0,0 -0.05346,-0.39559 -0.11224,-1.00582c0.41376,-4.32278 0.88635,-8.03535 1.35889,-11.74791c0,0 0.08819,-0.20132 0.26708,-0.56443c0.37696,-1.31687 0.57502,-2.2706 0.77308,-3.22435c0,0 -0.10993,-0.2648 0.15973,-0.32022c0.39398,-0.63857 0.51831,-1.22173 0.64264,-1.80488c0,0 -0.10944,-0.05006 0.1914,-0.23809c2.09668,-5.0636 3.8924,-9.93917 5.68811,-14.81473c0,0 -0.07208,-0.02426 0.18921,-0.18036c0.45313,-0.71254 0.64502,-1.269 0.83697,-1.82544c0,0 -0.08093,-0.01112 0.20698,-0.14783c0.46154,-0.72386 0.63525,-1.31099 0.80895,-1.89813c0,0 0.18244,-0.16124 0.40015,-0.46686c0.35278,-0.69058 0.4878,-1.07557 0.62287,-1.46055c0,0 -0.09339,-0.01314 0.21765,-0.13619c1.42871,-1.72325 2.54638,-3.32344 3.66406,-4.92363c0.31787,-0.04388 0.59296,-0.17657 1.36078,-0.66459c2.17785,-0.19901 3.82019,-0.13147 5.46246,-0.06394c0,0 0.01386,-0.11902 0.11768,0.2379c1.70984,2.12335 3.19897,2.54132 4.42987,-0.01823c0,0 -0.02375,-0.06299 0.22986,-0.1673c0.53656,-0.29588 0.70971,-0.55953 0.77307,-0.89526c0,0 -0.15802,-0.11419 0.22461,-0.07096c1.70147,0.26902 3.02044,0.49483 4.33935,0.72065c0,0 0.03314,-0.06815 0.09253,0.19187c0.35297,0.43482 0.64661,0.60962 0.94031,0.78441c0.06103,0.31555 0.21442,0.57694 0.70776,1.18454c0.58826,0.87171 0.92884,1.34299 1.26947,1.81429c0,0 0.039,-0.04088 0.03253,0.22824c0.22736,0.51781 0.46113,0.76649 0.69483,1.01518c0,0.00002 0.0072,0.04324 0.05469,0.41754c1.52032,5.25278 3.47931,10.04537 4.35968,15.02852c1.58917,8.9946 2.53338,18.10314 3.74695,27.16409c0,0 0.09539,0.06746 -0.25977,0.20763c-2.73883,0.01324 -5.12244,-0.11365 -7.5061,-0.24054c0,-0.00001 -0.05555,0.08217 -0.09919,-0.18414c-0.34539,-0.44231 -0.64715,-0.6183 -0.94885,-0.79428m-32.12854,-9.57087c-0.30066,1.94968 -0.60138,3.89936 -0.9021,5.84903c0.48505,0.23321 0.9701,0.46639 1.45514,0.69959c2.86774,-3.3063 5.86347,-6.51148 8.57495,-9.9413c4.7168,-5.9664 10.88196,-6.61598 16.01959,-1.28696c2.17505,2.25606 3.87769,4.96001 5.92511,7.3489c1.82203,2.12583 3.82374,4.09776 5.7461,6.13762c0.51843,-0.33382 1.03686,-0.66764 1.5553,-1.00147c-0.97516,-14.8358 -4.26062,-29.02809 -11.77259,-41.46889c-3.24176,0.92021 -6.26001,1.82585 -8.02905,0.7247c-3.30463,-2.05699 -5.00946,-1.13568 -6.22113,1.78331c-4.18481,10.08123 -8.21069,20.22843 -12.35132,31.15547z" fill="#2F2413"/>
   <path id="svg_66" d="m40.95548,198.32923c2.38324,10.6165 4.4899,21.5439 6.68787,32.45291c1.5841,7.86232 3.80957,10.19766 11.9711,10.71492c12.78302,0.81019 25.59762,1.28671 38.40548,1.49567c13.79947,0.22508 27.6066,-0.02069 41.8772,-0.07764c-1.05988,0.67941 -2.58093,1.96541 -4.1142,1.98021c-15.29278,0.14767 -30.59292,0.32994 -45.88006,-0.00107c-10.57102,-0.22885 -21.14389,-1.03876 -31.67887,-1.99658c-5.84985,-0.53185 -11.18939,-3.57045 -12.01745,-11.36919c-0.96481,-9.08676 -3.60941,-17.98952 -5.37494,-27.00152c-0.3721,-1.89942 -0.09277,-3.92644 0.12387,-6.19771z" fill="#D9B154"/>
   <path id="svg_67" d="m190.67154,264.85727c-1.61682,-9.00753 -2.56103,-18.11607 -4.1502,-27.11067c-0.88037,-4.98315 -2.83936,-9.77574 -4.37946,-15.01919c4.55322,-1.88593 0.10767,-5.22826 1.41113,-7.86837c3.34363,8.47858 6.62769,17.39791 9.95447,26.68608c-5.46936,0.97194 -2.8565,5.06124 -2.76208,7.64089c0.14947,4.08403 1.1828,8.12868 1.56744,12.21583c0.10217,1.08555 -0.7981,2.26543 -1.6413,3.45543z" fill="#D9B154"/>
   <path id="svg_68" d="m200.51603,244.68822c17.4364,0.00969 35.00787,0.37161 52.57879,0.76337c6.7995,0.15159 13.5976,0.37065 20.84821,0.67387c-1.3067,0.37111 -3.06995,0.87618 -4.82324,0.84369c-12.56159,-0.23268 -25.12,-0.64354 -37.68177,-0.8589c-9.03631,-0.15494 -18.07678,-0.06095 -27.11425,-0.17192c-1.22773,-0.01508 -2.44867,-0.57717 -3.80774,-1.25011z" fill="#D9B154"/>
   <path id="svg_69" d="m174.51627,183.25772c0.96173,1.23175 2.36127,2.74555 2.81464,4.50341c2.17901,8.44851 4.10247,16.96298 6.12323,25.85812c-2.33301,-6.88409 -4.73822,-14.15216 -6.9784,-21.47075c-0.84851,-2.77212 -1.31634,-5.66075 -1.95947,-8.89078z" fill="#D9B154"/>
   <path id="svg_70" d="m158.70554,202.90262c1.42157,-5.96501 2.8822,-12.11551 5.12122,-17.96824c1.54718,-4.04441 4.87036,-5.79957 9.44531,-3.24637c-6.19757,0.4447 -9.4068,3.98044 -10.92987,11.71922c-0.63654,3.23459 -2.15051,6.29649 -3.63666,9.49539z" fill="#D9B154"/>
   <path id="svg_71" d="m151.60636,222.80466c1.84051,-6.38405 4.0202,-12.90262 6.47449,-19.65048c-1.86206,6.35245 -3.99872,12.93422 -6.47449,19.65048z" fill="#D9B154"/>
   <path id="svg_72" d="m154.12894,229.0884c-1.43963,4.82989 -3.23535,9.70546 -5.30005,14.82004c1.46863,-4.76543 3.20624,-9.7699 5.30005,-14.82004z" fill="#D9B154"/>
   <path id="svg_73" d="m146.38065,250.15815c-0.09021,3.56384 -0.5628,7.27641 -1.07861,11.42761c-2.0965,-3.61234 -1.35492,-7.48694 1.07861,-11.42761z" fill="#D9B154"/>
   <path id="svg_74" d="m140.69339,242.95633c1.42005,-2.59878 3.22065,-5.16436 5.30884,-7.90936c0.46289,3.75704 -0.32416,7.0755 -5.30884,7.90936z" fill="#D9B154"/>
   <path id="svg_75" d="m39.01682,188.28452c0.79517,2.14847 1.35703,4.57059 1.87708,7.3589c-0.73136,-2.11761 -1.42087,-4.60142 -1.87708,-7.3589z" fill="#D9B154"/>
   <path id="svg_76" d="m164.58036,250.7385c1.77759,-2.59174 4.0968,-2.37909 6.64441,-0.03172c-1.9538,0.26077 -4.0741,0.2033 -6.64441,0.03172z" fill="#D9B154"/>
   <path id="svg_77" d="m182.55094,265.26792c2.33514,-0.26325 4.71875,-0.13636 7.43201,-0.20212c-1.89643,3.45904 -4.58771,2.53863 -7.43201,0.20212z" fill="#D9B154"/>
   <path id="svg_78" d="m168.15446,216.91124c-1.54163,0.29644 -3.18397,0.2289 -5.2417,0.22948c1.00299,-3.79562 3.05023,-2.37796 5.2417,-0.22948z" fill="#D9B154"/>
   <path id="svg_79" d="m161.05997,218.00519c-0.74579,1.59874 -1.86346,3.19893 -3.2644,4.96027c0.77527,-1.5455 1.83386,-3.25215 3.2644,-4.96027z" fill="#D9B154"/>
   <path id="svg_80" d="m172.35386,217.34781c-0.78211,2.70662 -2.27124,2.28865 -4.02741,0.20331c1.09284,-0.32939 2.33569,-0.33989 4.02741,-0.20331z" fill="#D9B154"/>
   <path id="svg_81" d="m178.31901,216.71808c-1.26838,0.13811 -2.58735,-0.0877 -4.24195,-0.27128c1.17334,-0.00272 2.68244,-0.04767 4.24195,0.27128z" fill="#D9B154"/>
   <path id="svg_82" d="m284.11088,246.0882c0.09893,-0.84856 0.54028,-1.73166 1.17047,-2.84496c0.18884,-0.23021 0.63299,-0.2397 0.85443,-0.24513c-0.41321,1.01491 -1.04779,2.03523 -2.0249,3.09009z" fill="#D9B154"/>
   <path id="svg_83" d="m146.59818,234.78867c0.21051,-1.36011 0.76483,-2.84714 1.55859,-4.57492c-0.24523,1.32217 -0.72998,2.88509 -1.55859,4.57492z" fill="#D9B154"/>
   <path id="svg_84" d="m158.48331,256.75914c0.20093,-0.88847 0.77027,-1.73631 1.62751,-2.70533c-0.22773,0.83453 -0.74335,1.79023 -1.62751,2.70533z" fill="#D9B154"/>
   <path id="svg_85" d="m161.71708,252.98861c0.32708,-0.72249 1.03149,-1.44399 2.02856,-2.25544c-0.35522,0.69219 -1.00323,1.47431 -2.02856,2.25544z" fill="#D9B154"/>
   <path id="svg_86" d="m281.42966,246.60624c0.41407,-0.32166 0.88379,-0.37902 1.70917,-0.39859c-0.31403,0.24614 -0.98377,0.45451 -1.70917,0.39859z" fill="#D9B154"/>
   <path id="svg_87" d="m193.50211,242.1834c0.47339,0.25192 0.92951,0.81828 1.50427,1.63707c-0.4281,-0.27262 -0.97485,-0.79764 -1.50427,-1.63707z" fill="#D9B154"/>
   <path id="svg_88" d="m147.43278,246.37616c0.1723,0.79824 -0.02576,1.75197 -0.47022,2.98212c-0.13098,-0.75795 -0.01556,-1.7923 0.47022,-2.98212z" fill="#D9B154"/>
   <path id="svg_89" d="m149.67136,264.56043c0.19733,-0.32683 0.59253,-0.4957 1.30768,-0.71494c-0.15662,0.25739 -0.63318,0.56514 -1.30768,0.71494z" fill="#D9B154"/>
   <path id="svg_90" d="m173.40433,253.38471c0.375,0.07956 0.7843,0.46542 1.25891,1.13156c-0.36462,-0.08823 -0.79461,-0.45674 -1.25891,-1.13156z" fill="#D9B154"/>
   <path id="svg_91" d="m148.31278,244.24491c0.1684,0.43379 0.04407,1.01695 -0.3092,1.79263c-0.14722,-0.41942 -0.06543,-1.03136 0.3092,-1.79263z" fill="#D9B154"/>
   <path id="svg_92" d="m175.50663,256.21009c0.38501,0.09077 0.76593,0.50912 1.22394,1.20923c-0.35798,-0.10605 -0.79303,-0.49384 -1.22394,-1.20923z" fill="#D9B154"/>
   <path id="svg_93" d="m154.30094,261.58649c-0.01434,-0.46248 0.29114,-0.91418 0.84997,-1.4841c-0.00793,0.41951 -0.26904,0.9572 -0.84997,1.4841z" fill="#D9B154"/>
   <path id="svg_94" d="m178.42179,260.35985c0.36969,0.10524 0.77411,0.52722 1.26013,1.23683c-0.35413,-0.11494 -0.78973,-0.51751 -1.26013,-1.23683z" fill="#D9B154"/>
   <path id="svg_95" d="m152.68485,262.95884c0.04645,-0.39141 0.41498,-0.79595 1.04456,-1.2948c-0.06684,0.36435 -0.39466,0.82299 -1.04456,1.2948z" fill="#D9B154"/>
   <path id="svg_96" d="m155.24247,227.19327c0.07678,0.4001 -0.11511,0.95656 -0.54279,1.69733c-0.06585,-0.39079 0.10407,-0.96588 0.54279,-1.69733z" fill="#D9B154"/>
   <path id="svg_97" d="m181.37858,220.74308c-0.3396,-0.15726 -0.68018,-0.62854 -1.06299,-1.39514c0.32592,0.16349 0.69391,0.62229 1.06299,1.39514z" fill="#D9B154"/>
   <path id="svg_98" d="m150.62748,224.81818c-0.12024,-0.41522 0.01794,-1.00801 0.41754,-1.77252c0.12128,0.41719 -0.01892,1.00609 -0.41754,1.77252z" fill="#D9B154"/>
   <path id="svg_99" d="m148.64499,229.82553c-0.1054,-0.40444 0.04639,-0.98142 0.44806,-1.73513c0.10303,0.40306 -0.04394,0.98283 -0.44806,1.73513z" fill="#D9B154"/>
   <path id="svg_100" d="m156.25553,225.15607c0.0979,0.42204 -0.07581,1.00917 -0.51233,1.76527c-0.09497,-0.42076 0.07288,-1.01046 0.51233,-1.76527z" fill="#D9B154"/>
   <path id="svg_101" d="m181.55228,264.14701c0.2038,-0.07167 0.50556,0.10432 0.89844,0.53233c-0.20606,0.07312 -0.5033,-0.10577 -0.89844,-0.53233z" fill="#D9B154"/>
   <path id="svg_102" d="m173.53397,182.21543c0.20758,-0.09552 0.52704,0.04796 0.93811,0.44668c-0.21435,0.10094 -0.52026,-0.05336 -0.93811,-0.44668z" fill="#D9B154"/>
   <path id="svg_103" d="m174.67484,255.00901c0.23737,-0.0503 0.50116,0.1757 0.82019,0.66589c-0.22784,0.04623 -0.51074,-0.17171 -0.82019,-0.66589z" fill="#D9B154"/>
   <path id="svg_104" d="m149.49943,227.9134c-0.17817,-0.12937 -0.17633,-0.30117 -0.03351,-0.68879c0.25067,-0.01501 0.38147,0.17856 0.45477,0.39186c0.01758,0.05112 -0.15582,0.1679 -0.42126,0.29693z" fill="#D9B154"/>
   <path id="svg_105" d="m157.27622,223.22942c0.13886,0.21912 0.00384,0.60411 -0.37885,1.17668c-0.13006,-0.21188 -0.01257,-0.61136 0.37885,-1.17668z" fill="#D9B154"/>
   <path id="svg_106" d="m182.11088,222.02893c-0.23761,0.02292 -0.47138,-0.22576 -0.72675,-0.74011c0.22919,-0.02092 0.47998,0.2238 0.72675,0.74011z" fill="#D9B154"/>
   <path id="svg_107" d="m179.30234,217.81717c-0.19366,0.06633 -0.4873,-0.10847 -0.87549,-0.5292c0.19544,-0.06792 0.48548,0.11009 0.87549,0.5292z" fill="#D9B154"/>
   <path id="svg_108" d="m171.50113,251.25681c0.18775,-0.06421 0.47938,0.0988 0.85157,0.50796c-0.26313,0.17673 -0.53919,0.0011 -0.85157,-0.50796z" fill="#D9B154"/>
   <path id="svg_109" d="m173.51346,216.41764c0.22876,0.35041 0.05561,0.61406 -0.45117,0.89419c-0.09619,-0.24389 0.0315,-0.57638 0.45117,-0.89419z" fill="#D9B154"/>
   <path id="svg_110" d="m146.55741,263.99726c-0.00946,-0.18517 0.4668,-0.08261 0.65521,0.07184c-0.08966,0.14073 -0.36774,0.12702 -0.65521,-0.07184z" fill="#D9B154"/>
   <path id="svg_111" d="m157.4954,257.80669c-0.11786,-0.22719 0.02569,-0.55226 0.42077,-0.98277c0.11457,0.22467 -0.0224,0.55476 -0.42077,0.98277z" fill="#D9B154"/>
   <path id="svg_112" d="m156.57841,258.86362c-0.0857,-0.20351 0.07568,-0.51063 0.48065,-0.92432c0.08453,0.20256 -0.07453,0.51163 -0.48065,0.92432z" fill="#D9B154"/>
   <path id="svg_113" d="m176.75437,257.95907c0.26068,-0.04889 0.51532,0.18351 0.80481,0.68159c-0.24707,0.04367 -0.52893,-0.17833 -0.80481,-0.68159z" fill="#D9B154"/>
   <path id="svg_114" d="m155.62619,259.89194c-0.07336,-0.19466 0.08582,-0.49678 0.49665,-0.88373c0.07977,0.20218 -0.0921,0.48923 -0.49665,0.88373z" fill="#D9B154"/>
   <path id="svg_115" d="m177.57529,259.09601c0.20874,-0.0329 0.461,0.18961 0.75647,0.66992c-0.20886,0.03369 -0.46088,-0.19041 -0.75647,-0.66992z" fill="#D9B154"/>
   <path id="svg_116" d="m145.59196,263.03647c0.22033,-0.06894 0.51629,0.13544 0.91125,0.59656c-0.21253,0.0634 -0.52411,-0.12993 -0.91125,-0.59656z" fill="#D9B154"/>
   <path id="svg_117" d="m151.48612,263.82198c-0.04901,-0.22142 0.164,-0.49702 0.64233,-0.82175c0.05011,0.22312 -0.16504,0.49535 -0.64233,0.82175z" fill="#D9B154"/>
   <path id="svg_122" d="m305.34269,163.25383c0.0993,0.07956 0.08331,0.26569 0.01953,0.72933c-0.24011,0.00116 -0.26911,-0.29892 -0.01953,-0.72933z" fill="#D2AD54"/>
   <path id="svg_123" d="m149.35294,253.926c4.11353,-10.52455 8.13941,-20.67175 12.32422,-30.75298c1.21167,-2.91899 2.9165,-3.8403 6.22113,-1.78331c1.76904,1.10115 4.78729,0.19551 8.02905,-0.7247c7.51197,12.4408 10.79743,26.63309 11.77259,41.46889c-0.51844,0.33383 -1.03687,0.66765 -1.5553,1.00147c-1.92236,-2.03986 -3.92407,-4.01179 -5.7461,-6.13762c-2.04742,-2.38889 -3.75006,-5.09284 -5.92511,-7.3489c-5.13763,-5.32902 -11.30279,-4.67944 -16.01959,1.28696c-2.71148,3.42982 -5.70721,6.635 -8.57495,9.9413c-0.48504,-0.2332 -0.97009,-0.46638 -1.45514,-0.69959c0.30072,-1.94967 0.60144,-3.89935 0.9292,-6.25152z" fill="#020102"/>
  </g>
 </g>
</svg>