<svg width="925" height="925" xmlns="http://www.w3.org/2000/svg" version="1.1">

  <g>
    <title>Tribo's Kkeleton</title>
    <path id="svg_2" fill="#F5C044"
      d="m430.70213,115.67123l20,0l20,1l6,2l8,0l17,2l20,1l28,6l17,2l10,4l17,3l8,3l10,2l6,3l10,2l9,4l9,3l13,5l16,8l17,10l5,3l3,0l1,3l5,2l4,4l4,1l1,3l5,-1l2,6l6,2l13,13l4,2l0,4l5,0l0,4l4,1l1,4l5,5l8,7l2,7l3,2l3,9l6,11l3,8l1,2l0,9l4,0l1,18l2,0l0,33l2,0l-1,19l-10,100l-3,0l-1,7l-1,8l-1,5l-4,1l-9,18l-2,0l-4,14l-3,0l-1,21l2,0l0,21l2,0l2,13l2,0l1,7l3,5l3,8l6,12l4,11l-2,17l-2,0l-2,5l-11,14l-5,8l-3,7l-3,2l-3,7l-4,5l-1,7l-5,6l-2,7l-5,5l-3,4l-5,0l-1,3l-7,-1l0,2l-4,-1l-51,-2l-36,-1l-25,0l-3,4l0,8l-1,6l-3,0l-2,10l-2,22l-2,1l-4,24l-2,27l-4,3l-6,0l-1,4l-8,-1l-2,4l-10,1l-3,3l-6,0l-3,0l-9,0l-1,3l-8,0l-4,0l-11,2l-1,1l-24,0l-13,1l-29,0l-26,-3l-22,-1l-4,-3l-20,-2l0,-2l-18,-2l-2,-3l-11,-2l-1,-3l-5,1l-4,-2l-1,-3l-6,-1l-3,-4l0,-29l-2,-26l0,-6l-2,0l-1,-16l-2,-15l-2,0l-1,-2l0,-9l-15,0l-51,-2l-46,-1l-7,1l-6,-2l0,-2l-6,-2l-5,-6l-5,-10l-2,-8l-2,-2l-3,-9l-4,-7l0,-4l-3,1l-3,-9l-3,-4l-1,-4l-3,-1l-4,-8l-4,-9l0,-8l4,-12l13,-23l5,-17l2,-9l0,-23l-1,-9l-2,0l-1,-9l-3,-9l-3,-8l-3,-6l-3,-8l-1,-5l-2,0l-3,-18l-2,-16l0,-38l2,-11l2,-20l2,-5l3,-18l4,-16l5,-14l7,-19l8,-16l9,-16l16,-26l12,-17l6,-8l10,-11l7,-8l12,-10l11,-8l11,-6l17,-10l24,-9l25,-8l19,-4l20,-4l3,-1l26,-2l4,-1l42,-1l-8,-1l0,-1z" />
    <path id="svg_3" fill="#000000"
      d="m158.59254,432.67123l598,0l0,10l-1,1l-2,15l-1,1l-1,8l-1,1l-1,8l-1,1l-1,8l-1,1l-3,16l-1,8l-1,1l-1,8l-1,1l-3,16l-1,7l-2,3l-2,13l-3,8l-3,13l-3,12l-3,8l-3,12l0,5l-3,0l-2,5l-2,0l0,5l-10,2l-122,0l-52,-1l-1,-1l-8,-1l-6,-5l-4,-8l-3,-10l-4,-10l-5,-14l-3,-7l-4,-15l-3,-7l-1,-7l-3,-9l-1,-5l-3,-14l-3,-8l-2,-12l-5,-5l-6,-3l-6,1l-7,3l-3,1l-1,9l-2,7l-2,0l0,7l-3,8l-4,17l-3,7l-6,20l-2,5l-2,0l-1,5l-5,13l-11,26l-4,6l-3,2l-8,2l-115,0l-5,-1l-29,-1l-7,-1l-24,-1l-11,-3l-4,-5l-2,-9l0,-3l-2,-1l-2,-15l-3,-8l-1,-8l-1,-1l-1,-8l-1,-1l-2,-15l-3,-11l-1,-10l-1,-1l-1,-10l-1,-1l-2,-18l-3,-11l-1,-7l-1,-1l-3,-18l-1,-3l-1,-7l-2,-12l2,-3z" />
    <path id="svg_5" fill="#060402"
      d="m440.98048,577.67123l11,0l0,3l5,1l0,2l4,0l1,-3l3,-2l7,0l0,2l4,2l6,7l8,18l7,21l5,19l2,14l0,11l-2,10l-1,1l-6,0l-8,-6l-7,-9l-6,-11l-7,-9l-5,-2l-7,0l-10,4l-13,13l-8,10l-1,5l-10,0l-10,-5l0,-8l4,-16l10,-30l8,-19l8,-14l6,-7l2,0l0,-2z" />
  </g>
</svg>