<svg width="360" height="360" xmlns="http://www.w3.org/2000/svg" version="1.1" enable-background="new 0 0 1600 889" xml:space="preserve">
  <g>
   <title>Layer 1</title>
   <path stroke-width="10" stroke="yellow" fill="#ff0000" d="m178.94498,19.0045c8.45215,1.02265 16.44788,1.95838 24.41699,3.0831c33.23108,4.69007 65.13733,13.21313 93.00556,32.97277c12.10126,8.58025 23.25561,18.56575 28.14142,32.84168c3.33105,9.73298 4.18811,9.60455 5.25897,30.75876c1.07086,21.15421 -0.42847,42.26909 -5.53314,62.92293c-1.00183,4.05345 -3.42878,7.90604 -5.8111,11.438c-6.67804,9.90039 -7.83118,20.0952 -3.32129,31.22536c2.73737,6.75551 4.83392,13.78671 6.92694,20.78127c1.24677,4.16674 0.20062,7.61512 -2.67382,11.42532c-6.16016,8.16548 -11.56666,16.94255 -16.76673,25.77249c-2.91534,4.95038 -6.98694,6.17999 -12.10705,6.04865c-15.4773,-0.39701 -30.95514,-0.77265 -46.43293,-1.15006c-1.1474,-0.02798 -2.29608,-0.00369 -4.16095,-0.00369c-2.51416,11.90256 -5.27398,23.69565 -7.41778,35.5997c-1.2666,7.03284 -4.70136,11.36896 -11.61035,13.32708c-15.2287,4.31598 -30.79065,5.29566 -46.47724,4.84916c-21.09631,-0.60044 -41.55591,-4.64606 -61.43725,-11.767c-4.25663,-1.5246 -5.65921,-3.83063 -5.5976,-8.47888c0.14548,-10.9715 -0.29871,-21.96741 -0.94784,-32.92719c-0.45438,-7.67181 -0.95533,-8.42935 -8.29694,-9.01507c-14.75195,-1.17691 -29.5502,-1.86728 -44.34253,-2.37342c-3.42163,-0.11706 -4.66061,-1.25567 -6.11005,-4.20569c-4.36972,-8.89363 -8.99362,-17.70338 -14.17742,-26.14094c-3.19828,-5.20575 -4.94382,-10.03186 -2.21799,-15.84482c1.19717,-2.55301 1.84723,-5.39433 3.24594,-7.8158c7.93664,-13.74021 7.79535,-28.15242 2.45682,-42.36279c-6.1073,-16.25685 -6.92682,-32.72127 -4.58533,-49.59149c5.55444,-40.01961 24.19077,-72.19973 58.16837,-94.57085c16.02532,-10.55119 34.47473,-14.46914 53.64022,-16.44963c11.58698,-0.34895 22.94117,-0.34895 34.7641,-0.34895m-110.54745,39.98459c0,0 -0.02854,-0.07205 -0.52481,0.10819c-0.1587,0.29943 -0.31742,0.59885 -0.89878,1.18126c-0.17062,0.28876 -0.34124,0.57753 -1.02237,1.11342c-0.25934,0.49106 -0.5187,0.98211 -0.68048,1.50252c0,0 -0.0188,-0.10017 -0.50946,0.11394c-0.15118,0.31605 -0.30234,0.63211 -0.37497,0.96839c0,0 -0.02841,-0.07594 -0.51455,0.11942c-0.15052,0.30564 -0.301,0.61129 -0.4585,0.90842c0,0 0.00958,0.00524 -0.52692,0.29499c-0.2886,0.53217 -0.57721,1.06434 -1.20132,1.82171c-0.17487,0.21341 -0.28726,0.45578 -0.91693,1.01142c-0.52228,0.92801 -1.04453,1.85601 -1.9722,3.01026c-0.24014,0.22235 -0.36902,0.49692 -0.90085,1.14115c-0.24707,0.54402 -0.49414,1.08805 -1.11969,1.87183c-0.20004,0.23354 -0.32336,0.50229 -0.91311,1.07959c-0.21796,0.55605 -0.43592,1.1121 -0.55884,1.68537c0,0 -0.02002,-0.09448 -0.49274,0.13244c-0.125,0.31867 -0.25003,0.63735 -0.40079,0.95226c0,0 0.01422,0.02231 -0.53952,0.36709c-0.87085,1.50587 -1.74167,3.01175 -2.51083,4.63279c0,0 -0.07065,-0.1364 -0.62888,0.24257c-1.10727,2.25015 -2.21457,4.50031 -3.31738,6.75638c0,0 -0.00601,-0.00341 -0.54776,0.36648c-0.254,0.8228 -0.508,1.6456 -0.60464,2.64086c0,0 -0.12027,-0.20011 -0.59678,0.16424c-0.16146,0.57284 -0.32293,1.14567 -0.37436,1.77597c0,0 -0.05615,-0.11071 -0.59246,0.32677c-0.49008,1.52749 -0.98014,3.05498 -1.47452,4.65955c0,0 0.03879,-0.06635 -0.46414,0.43592c-0.53079,1.84039 -1.06156,3.68076 -1.4939,5.58261c0,0 -0.03525,-0.11057 -0.5419,0.42371c-1.69309,7.60721 -4.20575,15.14256 -4.88065,22.83905c-0.9342,10.65368 -0.48568,21.42861 -0.67346,32.71206c0.10489,0.35733 0.20978,0.71466 0.26496,1.80896c0.61209,1.79972 1.22418,3.59945 1.89312,5.27984c0,0 -0.10257,0.08336 -0.04821,0.86025c1.29217,3.89747 2.58435,7.79496 3.73202,11.90809c0,0 0.13779,0.22002 0.15399,1.07199c2.51129,10.70212 3.89658,21.40775 -0.07119,32.32303c0,0 0.08004,0.2457 -0.36698,0.64905c-0.0769,0.38737 -0.15381,0.77473 -0.59369,1.66586c-0.27878,0.76213 -0.55755,1.52426 -1.30148,2.70183c-0.13409,0.59734 -0.26819,1.19467 -0.60251,2.02945c0,0 -0.0199,0.30997 -0.58417,0.78709c-1.41501,3.54471 -3.45559,6.9903 -4.03808,10.6669c-0.43116,2.72117 1.03524,5.74296 1.79016,9.02372c0,0 0.29281,0.29417 0.3569,0.73428c0.13895,0.286 0.36218,0.46938 0.65973,0.56244c0,0 0.01211,-0.009 0.11026,0.50906c0.26941,0.20855 0.53879,0.41707 0.83673,0.54398c0,0 -0.08523,0.01457 0.06073,0.56973c0.28812,0.24204 0.57623,0.48407 1.09259,1.34703c3.83698,7.34032 7.98664,14.54074 11.36237,22.08739c1.41943,3.17319 2.94583,3.94191 6.19418,4.09781c14.76974,0.70892 29.54474,1.5209 44.27136,2.82214c7.0286,0.62104 8.37375,2.26145 8.90207,9.41587c0.82019,11.10626 1.66568,22.259 1.45142,33.37179c-0.09888,5.12927 1.60153,7.05286 5.95739,8.45944c21.52659,6.95121 43.51859,11.46973 66.17563,10.46945c12.37757,-0.54638 24.69348,-2.88586 36.98743,-4.74554c5.28192,-0.79901 8.3075,-4.33447 9.39642,-9.69464c2.31507,-11.39539 5.0232,-22.71359 7.17798,-34.13742c0.82935,-4.39652 2.85535,-5.42224 7.05402,-5.25427c15.63013,0.6253 31.2746,0.89468 46.91406,1.28308c3.99927,0.09933 7.19788,-0.66931 9.54633,-4.74689c4.87011,-8.45599 9.90613,-16.90686 15.82409,-24.63203c3.10858,-4.05805 4.39502,-7.52405 2.75794,-12.17112c-0.65998,-1.87355 -1.35144,-3.73602 -1.98657,-6.27508c-0.27924,-0.59456 -0.55854,-1.18912 -0.84052,-2.08556c0,0 -0.18475,-0.23877 -0.18823,-0.88676c-0.30249,-0.55005 -0.60498,-1.10012 -0.9234,-2.01796c0,0 -0.17121,-0.32594 -0.12433,-0.93135c-0.27686,-0.5161 -0.55365,-1.0322 -0.93878,-1.43909c0,0 0.14087,-0.06183 0.1383,-0.7309c-0.37268,-0.77545 -0.74536,-1.5509 -1.18292,-2.25576c0,0 0.09399,-0.01873 0.06079,-0.68084c-0.27917,-0.58752 -0.55835,-1.17504 -0.80939,-2.06228c0,0 -0.18042,-0.24101 -0.16992,-0.92151c-0.29132,-0.59682 -0.58264,-1.19362 -0.87298,-2.08115c0,0 -0.18372,-0.22528 -0.17633,-0.90091c-0.25373,-0.60893 -0.50745,-1.21785 -0.6836,-2.10946c0,0 -0.1643,-0.24277 -0.14221,-1.167c-1.10559,-7.75665 0.2926,-15.08375 4.1897,-22.44306c0.20184,-0.52074 0.40375,-1.04148 1.10339,-1.87905c0.23792,-0.52904 0.47583,-1.05809 0.60773,-1.62712c0,0 0.04565,0.10371 0.51843,-0.13367c0.11865,-0.32159 0.2373,-0.64317 0.34784,-0.96635c0,0 0.00409,0.0088 0.49506,-0.30872c0.23864,-0.52456 0.47723,-1.04911 0.61908,-1.59988c0,0 0.03411,0.0943 0.51623,-0.1329c0.1261,-0.31997 0.25214,-0.63993 0.36719,-0.9582c0,0 0.0047,0.0111 0.47455,-0.34129c0.21435,-0.5352 0.42865,-1.07039 0.54742,-1.63753c0,0 0.06769,0.0746 0.57758,-0.26275c0.17181,-0.57317 0.34363,-1.14633 0.42602,-1.73757c0,0 0.06024,0.0685 0.58332,-0.43275c0.1784,-1.19273 0.35681,-2.38547 0.94641,-4.24355c4.6958,-22.99815 5.52404,-46.21566 4.21875,-69.59179c-1.03327,-18.50388 -9.37531,-33.2263 -23.55079,-44.46533c-8.42401,-6.67903 -17.46154,-12.86565 -26.97442,-17.83582c-25.72601,-13.44097 -53.69788,-19.31173 -82.32257,-22.46346c-25.13385,-2.76736 -50.20673,-3.31877 -74.89069,3.33341c-18.36371,4.94891 -34.53107,13.76682 -47.69961,28.57222c-0.18485,0.32183 -0.36969,0.64366 -0.45249,0.98365c0,0 -0.04547,-0.09316 -0.54599,0.10581c-0.16263,0.3114 -0.32522,0.62281 -0.40194,0.95328c0,0 1.14992,-0.13237 0.65328,0.05867" id="svg_5"/>
   <path stroke="null" fill="#ffff00" d="m292.23447,173.10613c-3.19733,13.22399 -6.28508,26.48436 -9.59841,39.6881c-2.00849,8.00354 -4.36611,15.91944 -6.74057,24.3875c-0.54088,1.24731 -0.90799,1.98186 -1.27514,2.71638c0,0 -0.16622,-0.06574 -0.49291,-0.01328c-0.71731,0.1002 -1.10801,0.14792 -1.49867,0.19561c-1.69438,-0.06342 -3.38882,-0.12686 -5.82005,-0.23295c-6.3919,-0.19931 -12.04645,-0.38152 -17.70216,-0.50761c-14.6152,-0.32586 -29.23086,-0.6269 -43.84637,-0.93784c-1.21442,-0.04457 -2.4289,-0.08913 -4.10632,-0.38127c-0.84239,-0.71868 -1.22178,-1.18977 -1.60118,-1.66083c0,0 -0.06732,0.07373 -0.0564,-0.25122c-2.72066,-7.74391 -5.45228,-15.16287 -8.18385,-22.58182c0,0 0.04259,-0.20496 -0.04737,-0.60285c-1.76531,-7.46061 -3.36521,-14.5428 -5.17768,-21.57014c-0.37711,-1.46216 -1.54122,-2.72131 -2.34259,-4.07403c0,0 -0.03858,0.07597 -0.07504,-0.15179c-0.30222,-0.34711 -0.56794,-0.46646 -0.83366,-0.58582c0,0 -0.00675,0.02558 -0.13591,-0.23259c-3.79425,-2.131 -6.55841,-0.67109 -7.84533,2.69298c-1.86238,4.8682 -3.07731,9.98409 -4.56841,14.99432c0,0 0.06615,0.0181 -0.18658,0.18472c-2.0658,5.58865 -3.87883,11.01069 -5.6918,16.43272c0,0 0.0793,0.01074 -0.16149,0.12108c-0.35574,0.60339 -0.47067,1.09647 -0.58562,1.58952c-0.21662,0.403 -0.43325,0.806 -0.75918,1.62123c-0.11083,0.55513 -0.11236,0.69803 -0.11383,0.84092c0,0 0.07281,0.01766 -0.16169,0.13829c-0.36076,0.60058 -0.48702,1.0805 -0.61323,1.56043c0,0 0.0263,-0.00222 -0.18256,0.18871c-0.66989,1.42782 -1.13096,2.66471 -1.59208,3.9016c0,-0.00001 0.09432,0.03884 -0.17729,0.14867c-1.76931,2.24385 -3.26702,4.37786 -4.76473,6.51185c0,0 0.053,0.05548 -0.3405,0.03132c-11.87533,0.00938 -23.35988,0.21381 -34.83805,0.02659c-10.65337,-0.17381 -21.31234,-0.57017 -31.94505,-1.24407c-6.78863,-0.43025 -8.63974,-2.37275 -9.95736,-8.91249c-1.82824,-9.07394 -3.58052,-18.16317 -5.36532,-27.24586c-0.00427,-0.38633 -0.0085,-0.77268 -0.11336,-1.72279c-0.56797,-2.57843 -1.03531,-4.59311 -1.50266,-6.60778c-0.00932,-0.38293 -0.01866,-0.76587 -0.14492,-1.41377c-1.5897,-8.80928 -3.06248,-17.35359 -4.46261,-25.47635c28.58266,0 57.03901,0 85.88171,-0.0549c4.0057,0.03362 7.62505,0.12215 12.0102,0.2665c26.744,0.3502 52.72266,0.60494 78.70011,0.9532c16.71467,0.22407 33.4275,0.58555 50.14115,0.88545c0,0 0.04422,-0.07191 -0.02569,0.2423c-0.27085,1.51494 -0.47179,2.71568 -0.76853,4.00507c-0.2076,0.35801 -0.18347,0.60761 -0.14261,1.03213c-0.1292,0.49288 -0.13931,0.79108 -0.14941,1.0893c0,0 -0.02452,0.0281 -0.03899,0.01557z" id="svg_62"/>
   <path stroke="null" fill="#ffff00" d="m166.81772,252.98694c2.89839,-7.41559 5.73502,-14.5653 8.68364,-21.66853c0.85374,-2.05672 2.05496,-2.70587 4.38341,-1.25652c1.24646,0.77587 3.37312,0.13776 5.65726,-0.51062c5.29293,8.76578 7.60786,18.76566 8.29496,29.21896c-0.36529,0.23522 -0.73058,0.47043 -1.09586,0.70564c-1.35449,-1.43728 -2.7649,-2.82671 -4.0487,-4.32456c-1.44261,-1.68321 -2.64229,-3.58841 -4.17483,-5.17803c-3.61997,-3.75482 -7.96394,-3.29713 -11.2874,0.90679c-1.91051,2.41665 -4.0213,4.67502 -6.04191,7.00464c-0.34176,-0.16431 -0.68352,-0.32861 -1.02529,-0.49293c0.21189,-1.37374 0.42377,-2.74748 0.65471,-4.40482z" id="svg_123"/>
  </g>
 
 </svg>